<?xml version="1.0" encoding="UTF-8"?>
<!-- Generator: Adobe Illustrator 22.1.0, SVG Export Plug-In . SVG Version: 6.00 Build 0)  -->
<svg version="1.1" id="Layer_1" xmlns="http://www.w3.org/2000/svg" xmlns:xlink="http://www.w3.org/1999/xlink" x="0px" y="0px" viewBox="0 0 232.1 77.4" style="enable-background:new 0 0 232.1 77.4;" xml:space="preserve">
<style type="text/css">
	.st0{fill:#FFFFFF;}
	.st1{fill:#00FF00;}
</style>
<path class="st0" d="M89.9,1.4h6.3l3.1,11c0.8,2.8,1.4,5.9,1.4,5.9h0.1c0,0,0.6-3.2,1.3-5.9l3.1-11h6.3v21.9h-4.1V10.7  c0-1.8,0.2-4.5,0.2-4.5h-0.1c0,0-0.5,2.6-0.9,4.2l-3.8,12.9h-4.3l-3.7-12.9c-0.5-1.6-0.9-4.2-0.9-4.2h-0.1c0,0,0.2,2.8,0.2,4.5v12.6  h-4.1V1.4z M113.3,1.4h4.4v21.9h-4.4V1.4z M119.4,1.4H137v3.7h-6.6v18.2H126V5.1h-6.6V1.4z M103.7,46.1c-1.6,0.9-3.5,1.5-5.6,1.5  c-6.5,0-10.5-4.8-10.5-11.4s4-11.4,10.5-11.4s10.5,4.9,10.5,11.4c0,3-0.9,5.6-2.4,7.6l2.3,2.1l-2.3,2.5L103.7,46.1z M100.7,43.4  l-1.9-1.8l2.3-2.5l2,1.8c0.7-1.3,1-3,1-4.8c0-4.4-1.9-7.8-5.9-7.8s-6,3.4-6,7.8s2,7.8,6,7.8C99.1,44,100,43.8,100.7,43.4z   M120.2,47.1v-1.8h-0.1c-1.1,1.4-2.3,2.3-4.5,2.3c-3.5,0-5.5-2.2-5.5-5.7V31.4h4.1v9.8c0,1.8,0.8,2.8,2.6,2.8c2,0,3.2-1.5,3.2-3.6  v-9.1h4.2V47L120.2,47.1L120.2,47.1z M125.2,39.3c0-4.7,3.2-8.3,7.8-8.3c5.1,0,7.8,3.9,7.8,9.5h-11.4c0.3,2.4,1.7,3.9,4,3.9  c1.6,0,2.6-0.7,3-1.9h4.1c-0.6,2.8-3.1,5.1-7.1,5.1C128.1,47.6,125.2,43.9,125.2,39.3z M129.3,37.6h7c-0.1-2-1.4-3.4-3.3-3.4  C130.8,34.2,129.7,35.5,129.3,37.6z M140.9,42h3.9c0.3,1.8,1.6,2.6,3.4,2.6c1.8,0,2.9-0.7,2.9-1.8c0-1.5-2-1.7-4.1-2.1  c-2.8-0.6-5.6-1.3-5.6-4.7s2.8-5,6.4-5c4.1,0,6.4,2.1,6.7,5.2h-3.8c-0.2-1.7-1.3-2.3-3-2.3c-1.6,0-2.7,0.6-2.7,1.7  c0,1.3,2.1,1.5,4.3,1.9c2.6,0.6,5.5,1.3,5.5,5c0,3.2-2.7,5.1-6.6,5.1C143.7,47.6,141.1,45.4,140.9,42z M154.4,31.4h2.2v-4.9h4.1v4.9  h2.7v2.8h-2.7v8.3c0,1.2,0.6,1.6,1.6,1.6c0.5,0,1.2,0,1.2,0v3.1c0,0-0.9,0.1-2.6,0.1c-2,0-4.3-0.8-4.3-3.8v-9.2h-2.2V31.4z   M167.9,31.4h2.1V30c0-3.8,3-5.2,7-4.7v3.2c-2-0.1-2.8,0.2-2.8,1.8v1.2h2.8v2.9h-2.8v12.8H170V34.3h-2.1V31.4z M176.3,39.3  c0-4.7,3.3-8.3,8.2-8.3s8.2,3.6,8.2,8.3s-3.3,8.3-8.2,8.3C179.7,47.6,176.3,44,176.3,39.3z M188.5,39.3c0-3.1-1.4-5.1-4-5.1  s-4,2.1-4,5.1c0,3.1,1.4,5.1,4,5.1C187.1,44.4,188.5,42.4,188.5,39.3z M197.8,33.9L197.8,33.9c1-1.8,2.1-2.7,4-2.7  c0.5,0,0.7,0,1,0.1V35h-0.1c-2.7-0.3-4.7,1.2-4.7,4.5v7.7h-4.2V31.4h4V33.9z M89.9,49.1h4.4V71h-4.4V49.1z M100.2,57.4L100.2,57.4  c1.2-1.7,2.6-2.6,4.7-2.6c3.2,0,5.4,2.5,5.4,5.9V71h-4.2v-9.7c0-1.7-1-2.9-2.7-2.9c-1.8,0-3.2,1.5-3.2,3.6v9H96V55.2h4.1L100.2,57.4  L100.2,57.4z M110.7,55.2h2.2v-4.9h4.1v4.9h2.7V58H117v8.3c0,1.2,0.6,1.6,1.6,1.6c0.5,0,1.2,0,1.2,0V71c0,0-0.9,0.1-2.6,0.1  c-2,0-4.3-0.8-4.3-3.8V58h-2.2C110.7,58,110.7,55.2,110.7,55.2z M119.6,63.1c0-4.7,3.2-8.3,7.8-8.3c5.1,0,7.8,3.9,7.8,9.5h-11.4  c0.3,2.4,1.7,3.9,4,3.9c1.6,0,2.6-0.7,3-1.9h4.1c-0.6,2.8-3.1,5.1-7.1,5.1C122.6,71.4,119.6,67.8,119.6,63.1z M123.8,61.4h7  c-0.1-2-1.4-3.4-3.3-3.4C125.2,58,124.2,59.4,123.8,61.4z M136.2,49.1h4.2V71h-4.2V49.1z M142,49.1h4.2V71H142V49.1z M148,55.2h4.2  V71H148V55.2z M153.5,71.4h4.1c0.3,1,1.2,1.7,3.2,1.7c2.4,0,3.5-1.1,3.5-3.3v-1.7h-0.1c-0.9,1-2.1,1.8-4.1,1.8  c-3.5,0-6.9-2.8-6.9-7.5s2.8-7.7,6.8-7.7c2,0,3.4,0.8,4.4,2.1h0.1v-1.7h4v14.5c0,2.2-0.7,3.7-1.9,4.8c-1.3,1.2-3.3,1.8-5.7,1.8  C156.6,76.3,153.9,74.5,153.5,71.4z M164.5,62.4c0-2.3-1.2-4.3-3.7-4.3c-2.1,0-3.5,1.7-3.5,4.3c0,2.7,1.4,4.2,3.6,4.2  C163.4,66.7,164.5,64.7,164.5,62.4z M169.4,63.1c0-4.7,3.2-8.3,7.8-8.3c5.1,0,7.8,3.9,7.8,9.5h-11.4c0.3,2.4,1.7,3.9,4,3.9  c1.6,0,2.6-0.7,3-1.9h4.1c-0.6,2.8-3.1,5.1-7.1,5.1C172.3,71.4,169.4,67.8,169.4,63.1z M173.6,61.4h7c-0.1-2-1.4-3.4-3.3-3.4  C175,58,173.9,59.4,173.6,61.4z M190,57.4L190,57.4c1.2-1.7,2.6-2.6,4.7-2.6c3.2,0,5.4,2.5,5.4,5.9V71H196v-9.7c0-1.7-1-2.9-2.7-2.9  c-1.8,0-3.2,1.5-3.2,3.6v9h-4.2V55.2h4.1L190,57.4L190,57.4z M201,63.1c0-4.7,3.1-8.3,7.8-8.3c4.1,0,6.6,2.4,7.1,5.8h-4.1  c-0.3-1.4-1.3-2.4-2.9-2.4c-2.5,0-3.8,1.9-3.8,5c0,3,1.2,5,3.7,5c1.7,0,2.9-0.9,3.2-2.7h4c-0.3,3.3-2.9,6-7.1,6  C204.1,71.4,201,67.8,201,63.1z M216.6,63.1c0-4.7,3.2-8.3,7.8-8.3c5.1,0,7.8,3.9,7.8,9.5h-11.4c0.3,2.4,1.7,3.9,4,3.9  c1.6,0,2.6-0.7,3-1.9h4.1c-0.6,2.8-3.1,5.1-7.1,5.1C219.5,71.4,216.6,67.8,216.6,63.1z M220.8,61.4h7c-0.1-2-1.4-3.4-3.3-3.4  C222.2,58,221.1,59.4,220.8,61.4z M150.1,49.1c-1.4,0-2.5,1.1-2.5,2.5s1.1,2.5,2.5,2.5s2.5-1.1,2.5-2.5  C152.5,50.2,151.4,49.1,150.1,49.1z"/>
<circle class="st1" cx="36.2" cy="36.2" r="36.2"/>
<circle class="st1" cx="75.4" cy="65.2" r="7.2"/>
</svg>
